<?xml version="1.0" encoding="UTF-8" standalone="no"?> <svg xmlns="http://www.w3.org/2000/svg" xmlns:xlink="http://www.w3.org/1999/xlink" viewBox="0 0 64 64"><defs><style>.cls-1{fill:url(#linear-gradient);}.cls-2{fill:url(#linear-gradient-2);}</style><linearGradient id="linear-gradient" x1="12.51" y1="32" x2="51.49" y2="32" gradientUnits="userSpaceOnUse"><stop offset="0" stop-color="#17a6d7"/><stop offset="1" stop-color="#9d31fe"/></linearGradient><linearGradient id="linear-gradient-2" x1="23.53" y1="21.7" x2="40.5" y2="21.7" xlink:href="#linear-gradient"/></defs><g id="Layer_11" data-name="Layer 11"><path class="cls-1" d="M49.49,2h-35a2,2,0,0,0-2,2V60a2,2,0,0,0,3.4,1.42L32,45.56,48.09,61.42A2,2,0,0,0,51.49,60V4A2,2,0,0,0,49.49,2Zm-2,53.22L33.4,41.32a2,2,0,0,0-2.8,0L16.51,55.22V6h31Z"/><path class="cls-2" d="M25.5,23.7H30v4.5a2,2,0,1,0,4,0V23.7h4.5a2,2,0,0,0,0-4H34V15.2a2,2,0,0,0-4,0v4.5H25.5A2,2,0,0,0,25.5,23.7Z"/></g></svg>